<?xml version="1.0" encoding="UTF-8"?>
<svg xmlns="http://www.w3.org/2000/svg" xmlns:xlink="http://www.w3.org/1999/xlink" version="1.1" width="152.4mm" height="101.6mm" viewBox="0 0 152.4 101.6" style="stroke:black;fill:black" stroke-width="0.5">
<g stroke="none" stroke-width="0.3" font-family="Helvetic,Arial,sans" fill="#000000" font-size="3.88">
  <g class="plotroot xscalable yscalable">
    <g stroke="none" font-family="'PT Sans','Helvetica Neue','Helvetica',sans-serif" fill="#4C404B" font-size="3.18" class="guide ylabels">
      <text x="23.7" y="16.15" text-anchor="end" style="dominant-baseline:central">1.0</text>
      <text x="23.7" y="53.95" text-anchor="end" style="dominant-baseline:central">0.4</text>
      <text x="23.7" y="28.75" text-anchor="end" style="dominant-baseline:central">0.8</text>
      <text x="23.7" y="66.55" text-anchor="end" style="dominant-baseline:central">0.2</text>
      <text x="23.7" y="41.35" text-anchor="end" style="dominant-baseline:central">0.6</text>
      <text x="23.7" y="79.15" text-anchor="end" style="dominant-baseline:central">0.0</text>
    </g>
    <g stroke="none" font-family="'PT Sans','Helvetica Neue','Helvetica',sans-serif" fill="#362A35" font-size="3.88">
      <text x="8.63" y="47.65" text-anchor="middle" style="dominant-baseline:central" transform="rotate(-90, 8.63, 47.65)">This is the y-axis</text>
    </g>
    <g stroke="none" font-family="'PT Sans','Helvetica Neue','Helvetica',sans-serif" fill="#4C404B" font-size="3.18" class="guide xlabels">
      <text x="143.93" y="86.34" text-anchor="middle">1.0</text>
      <text x="74.47" y="86.34" text-anchor="middle">0.4</text>
      <text x="120.78" y="86.34" text-anchor="middle">0.8</text>
      <text x="51.32" y="86.34" text-anchor="middle">0.2</text>
      <text x="97.62" y="86.34" text-anchor="middle">0.6</text>
      <text x="28.17" y="86.34" text-anchor="middle">0.0</text>
    </g>
    <g stroke="none" font-family="'PT Sans','Helvetica Neue','Helvetica',sans-serif" fill="#362A35" font-size="3.88">
      <text x="86.05" y="94.6" text-anchor="middle">This is the x-axis</text>
    </g>
    <g stroke="none" font-family="'PT Sans','Helvetica Neue','Helvetica',sans-serif" fill="#362A35" font-size="3.88">
      <text x="86.05" y="12.26" text-anchor="middle">This is the overall plot title</text>
    </g>
    <g>
      <g clip-path="url(#clippath1)">
        <g stroke="#F1F1F5" fill="#FAFAFA" class="guide background">
          <path d="M24.7,14.26 L 147.4 14.26 147.4 81.04 24.7 81.04 z" />
        </g>
        <g stroke="#F0F0F3" stroke-width="0.2" class="guide ygridlines xfixed">
          <path d="M24.7,104.35 L 147.4 104.35" />
          <path d="M24.7,53.95 L 147.4 53.95" />
          <path d="M24.7,129.55 L 147.4 129.55" />
          <path d="M24.7,116.95 L 147.4 116.95" />
          <path d="M24.7,66.55 L 147.4 66.55" />
          <path d="M24.7,-9.05 L 147.4 -9.05" />
          <path d="M24.7,-34.25 L 147.4 -34.25" />
          <path d="M24.7,3.55 L 147.4 3.55" />
          <path d="M24.7,142.15 L 147.4 142.15" />
          <path d="M24.7,91.75 L 147.4 91.75" />
          <path d="M24.7,79.15 L 147.4 79.15" />
          <path d="M24.7,41.35 L 147.4 41.35" />
          <path d="M24.7,-59.45 L 147.4 -59.45" />
          <path d="M24.7,154.75 L 147.4 154.75" />
          <path d="M24.7,28.75 L 147.4 28.75" />
          <path d="M24.7,-46.85 L 147.4 -46.85" />
          <path d="M24.7,16.15 L 147.4 16.15" />
          <path d="M24.7,-21.65 L 147.4 -21.65" />
        </g>
        <g stroke="#F0F0F3" stroke-width="0.2" class="guide xgridlines yfixed">
          <path d="M-18.13,14.26 L -18.13 81.04" />
          <path d="M74.47,14.26 L 74.47 81.04" />
          <path d="M-64.43,14.26 L -64.43 81.04" />
          <path d="M-41.28,14.26 L -41.28 81.04" />
          <path d="M51.32,14.26 L 51.32 81.04" />
          <path d="M190.23,14.26 L 190.23 81.04" />
          <path d="M236.53,14.26 L 236.53 81.04" />
          <path d="M167.08,14.26 L 167.08 81.04" />
          <path d="M-87.59,14.26 L -87.59 81.04" />
          <path d="M5.02,14.26 L 5.02 81.04" />
          <path d="M28.17,14.26 L 28.17 81.04" />
          <path d="M97.62,14.26 L 97.62 81.04" />
          <path d="M282.84,14.26 L 282.84 81.04" />
          <path d="M-110.74,14.26 L -110.74 81.04" />
          <path d="M120.78,14.26 L 120.78 81.04" />
          <path d="M259.68,14.26 L 259.68 81.04" />
          <path d="M143.93,14.26 L 143.93 81.04" />
          <path d="M213.38,14.26 L 213.38 81.04" />
        </g>
      </g>
      <g clip-path="url(#clippath2)">
        <g class="plotpanel">
          <g stroke-width="0.3">
            <g stroke="#0096DD" stroke-width="0.3" fill="#00BFFF" class="geometry color_LCHab(70.0,60.0,240.0)_">
              <circle cx="138.37" cy="45.1" r="0.6" />
            </g>
            <g stroke="#0096DD" stroke-width="0.3" fill="#00BFFF" class="geometry color_LCHab(70.0,60.0,240.0)_">
              <circle cx="59.78" cy="73.53" r="0.6" />
            </g>
            <g stroke="#0096DD" stroke-width="0.3" fill="#00BFFF" class="geometry color_LCHab(70.0,60.0,240.0)_">
              <circle cx="58.01" cy="30.58" r="0.6" />
            </g>
            <g stroke="#0096DD" stroke-width="0.3" fill="#00BFFF" class="geometry color_LCHab(70.0,60.0,240.0)_">
              <circle cx="138.85" cy="33.53" r="0.6" />
            </g>
            <g stroke="#0096DD" stroke-width="0.3" fill="#00BFFF" class="geometry color_LCHab(70.0,60.0,240.0)_">
              <circle cx="120.37" cy="56.14" r="0.6" />
            </g>
            <g stroke="#0096DD" stroke-width="0.3" fill="#00BFFF" class="geometry color_LCHab(70.0,60.0,240.0)_">
              <circle cx="81" cy="21.33" r="0.6" />
            </g>
            <g stroke="#0096DD" stroke-width="0.3" fill="#00BFFF" class="geometry color_LCHab(70.0,60.0,240.0)_">
              <circle cx="58.78" cy="21.26" r="0.6" />
            </g>
            <g stroke="#0096DD" stroke-width="0.3" fill="#00BFFF" class="geometry color_LCHab(70.0,60.0,240.0)_">
              <circle cx="136.12" cy="42.33" r="0.6" />
            </g>
            <g stroke="#0096DD" stroke-width="0.3" fill="#00BFFF" class="geometry color_LCHab(70.0,60.0,240.0)_">
              <circle cx="96.32" cy="72.1" r="0.6" />
            </g>
            <g stroke="#0096DD" stroke-width="0.3" fill="#00BFFF" class="geometry color_LCHab(70.0,60.0,240.0)_">
              <circle cx="97.28" cy="49.74" r="0.6" />
            </g>
          </g>
          <g stroke-width="0.3" fill="none">
            <g stroke="#00BFFF" class="geometry">
              <path d="M58.01,41.54 L 58.12 41.38 58.23 41.22 58.34 41.07 58.44 40.91 58.55 40.76 58.66 40.6 58.77 40.45 58.87 40.3 58.98 40.15 59.09 40 59.2 39.86 59.31 39.71 59.41 39.57 59.52 39.43 59.63 39.29 59.74 39.15 59.84 39 59.95 38.85 60.06 38.7 60.17 38.56 60.28 38.42 60.38 38.27 60.49 38.13 60.6 38 60.71 37.86 60.81 37.73 60.92 37.6 61.03 37.47 61.14 37.34 61.25 37.21 61.35 37.09 61.46 36.96 61.57 36.84 61.68 36.72 61.78 36.61 61.89 36.49 62 36.38 62.11 36.27 62.22 36.16 62.32 36.05 62.43 35.94 62.54 35.84 62.65 35.73 62.75 35.63 62.86 35.53 62.97 35.43 63.08 35.34 63.19 35.24 63.29 35.15 63.4 35.06 63.51 34.97 63.62 34.88 63.72 34.8 63.83 34.71 63.94 34.63 64.05 34.55 64.16 34.47 64.26 34.39 64.37 34.32 64.48 34.24 64.59 34.17 64.69 34.1 64.8 34.03 64.91 33.96 65.02 33.9 65.13 33.83 65.23 33.77 65.34 33.71 65.45 33.65 65.56 33.59 65.66 33.53 65.77 33.48 65.88 33.43 65.99 33.37 66.1 33.32 66.2 33.27 66.31 33.23 66.42 33.18 66.53 33.14 66.63 33.09 66.74 33.05 66.85 33.01 66.96 32.97 67.07 32.94 67.17 32.9 67.28 32.87 67.39 32.83 67.5 32.8 67.6 32.77 67.71 32.74 67.82 32.71 67.93 32.69 68.04 32.66 68.14 32.64 68.25 32.62 68.36 32.6 68.47 32.58 68.57 32.56 68.68 32.55 68.79 32.53 68.9 32.52 69.01 32.51 69.11 32.49 69.22 32.49 69.33 32.48 69.44 32.47 69.54 32.46 69.65 32.46 69.76 32.46 69.87 32.45 69.98 32.45 70.08 32.45 70.19 32.46 70.3 32.46 70.41 32.46 70.51 32.47 70.62 32.47 70.73 32.48 70.84 32.49 70.95 32.5 71.05 32.51 71.16 32.53 71.27 32.54 71.38 32.55 71.48 32.57 71.59 32.59 71.7 32.61 71.81 32.63 71.92 32.65 72.02 32.67 72.13 32.69 72.24 32.71 72.35 32.74 72.45 32.77 72.56 32.79 72.67 32.82 72.78 32.85 72.89 32.88 72.99 32.91 73.1 32.94 73.21 32.98 73.32 33.01 73.42 33.05 73.53 33.08 73.64 33.12 73.75 33.16 73.86 33.2 73.96 33.24 74.07 33.28 74.18 33.32 74.29 33.37 74.39 33.41 74.5 33.46 74.61 33.5 74.72 33.55 74.83 33.6 74.93 33.65 75.04 33.7 75.15 33.75 75.26 33.8 75.37 33.85 75.47 33.9 75.58 33.96 75.69 34.01 75.8 34.07 75.9 34.13 76.01 34.18 76.12 34.24 76.23 34.3 76.34 34.36 76.44 34.42 76.55 34.48 76.66 34.55 76.77 34.61 76.87 34.67 76.98 34.74 77.09 34.8 77.2 34.87 77.31 34.94 77.41 35.01 77.52 35.07 77.63 35.14 77.74 35.21 77.84 35.28 77.95 35.36 78.06 35.43 78.17 35.5 78.28 35.57 78.38 35.65 78.49 35.72 78.6 35.8 78.71 35.88 78.81 35.95 78.92 36.03 79.03 36.11 79.14 36.19 79.25 36.27 79.35 36.35 79.46 36.43 79.57 36.51 79.68 36.59 79.78 36.67 79.89 36.75 80 36.84 80.11 36.92 80.22 37.01 80.32 37.09 80.43 37.18 80.54 37.26 80.65 37.35 80.75 37.44 80.86 37.52 80.97 37.61 81.08 37.7 81.19 37.79 81.29 37.88 81.4 37.97 81.51 38.06 81.62 38.15 81.72 38.24 81.83 38.33 81.94 38.43 82.05 38.52 82.16 38.61 82.26 38.71 82.37 38.8 82.48 38.89 82.59 38.99 82.69 39.08 82.8 39.18 82.91 39.28 83.02 39.37 83.13 39.47 83.23 39.57 83.34 39.66 83.45 39.76 83.56 39.86 83.66 39.96 83.77 40.05 83.88 40.15 83.99 40.25 84.1 40.35 84.2 40.45 84.31 40.55 84.42 40.65 84.53 40.75 84.63 40.85 84.74 40.95 84.85 41.05 84.96 41.16 85.07 41.26 85.17 41.36 85.28 41.46 85.39 41.56 85.5 41.66 85.6 41.77 85.71 41.87 85.82 41.97 85.93 42.08 86.04 42.18 86.14 42.28 86.25 42.39 86.36 42.49 86.47 42.59 86.57 42.7 86.68 42.8 86.79 42.9 86.9 43.01 87.01 43.11 87.11 43.22 87.22 43.32 87.33 43.42 87.44 43.53 87.54 43.63 87.65 43.74 87.76 43.84 87.87 43.95 87.98 44.05 88.08 44.16 88.19 44.26 88.3 44.36 88.41 44.47 88.51 44.57 88.62 44.68 88.73 44.78 88.84 44.87 88.95 44.98 89.05 45.09 89.16 45.2 89.27 45.32 89.38 45.44 89.48 45.57 89.59 45.7 89.7 45.84 89.81 45.98 89.92 46.13 90.02 46.28 90.13 46.43 90.24 46.59 90.35 46.75 90.45 46.92 90.56 47.09 90.67 47.26 90.78 47.44 90.89 47.62 90.99 47.8 91.1 47.99 91.21 48.18 91.32 48.38 91.42 48.57 91.53 48.77 91.64 48.98 91.75 49.19 91.86 49.4 91.96 49.61 92.07 49.82 92.18 50.04 92.29 50.26 92.39 50.49 92.5 50.71 92.61 50.94 92.72 51.17 92.83 51.4 92.93 51.64 93.04 51.88 93.15 52.11 93.26 52.36 93.36 52.6 93.47 52.84 93.58 53.09 93.69 53.34 93.8 53.58 93.9 53.83 94.01 54.09 94.12 54.34 94.23 54.59 94.33 54.85 94.44 55.11 94.55 55.36 94.66 55.62 94.77 55.88 94.87 56.14 94.98 56.4 95.09 56.66 95.2 56.92 95.3 57.18 95.41 57.45 95.52 57.71 95.63 57.97 95.74 58.23 95.84 58.49 95.95 58.76 96.06 59.02 96.17 59.28 96.27 59.54 96.38 59.8 96.49 60.07 96.6 60.33 96.71 60.58 96.81 60.83 96.92 60.94 97.03 61.06 97.14 61.17 97.24 61.29 97.35 61.39 97.46 61.5 97.57 61.61 97.68 61.71 97.78 61.81 97.89 61.91 98 62.01 98.11 62.11 98.21 62.2 98.32 62.29 98.43 62.38 98.54 62.47 98.65 62.55 98.75 62.64 98.86 62.72 98.97 62.8 99.08 62.88 99.18 62.96 99.29 63.03 99.4 63.11 99.51 63.18 99.62 63.25 99.72 63.32 99.83 63.38 99.94 63.45 100.05 63.51 100.15 63.58 100.26 63.64 100.37 63.69 100.48 63.75 100.59 63.81 100.69 63.86 100.8 63.92 100.91 63.97 101.02 64.02 101.12 64.07 101.23 64.11 101.34 64.16 101.45 64.2 101.56 64.25 101.66 64.29 101.77 64.33 101.88 64.37 101.99 64.41 102.09 64.44 102.2 64.48 102.31 64.51 102.42 64.54 102.53 64.58 102.63 64.61 102.74 64.64 102.85 64.66 102.96 64.69 103.06 64.72 103.17 64.74 103.28 64.77 103.39 64.79 103.5 64.81 103.6 64.83 103.71 64.85 103.82 64.87 103.93 64.89 104.03 64.91 104.14 64.92 104.25 64.94 104.36 64.95 104.47 64.97 104.57 64.98 104.68 64.99 104.79 65 104.9 65.01 105 65.02 105.11 65.03 105.22 65.04 105.33 65.05 105.44 65.06 105.54 65.06 105.65 65.07 105.76 65.07 105.87 65.08 105.97 65.08 106.08 65.08 106.19 65.09 106.3 65.09 106.41 65.09 106.51 65.09 106.62 65.09 106.73 65.09 106.84 65.09 106.95 65.09 107.05 65.09 107.16 65.09 107.27 65.09 107.38 65.09 107.48 65.08 107.59 65.08 107.7 65.08 107.81 65.08 107.92 65.07 108.02 65.07 108.13 65.07 108.24 65.06 108.35 65.06 108.45 65.05 108.56 65.05 108.67 65.04 108.78 65.04 108.89 65.04 108.99 65.03 109.1 65.03 109.21 65.03 109.32 65.02 109.42 65.02 109.53 65.01 109.64 65.01 109.75 65 109.86 64.99 109.96 64.98 110.07 64.97 110.18 64.95 110.29 64.94 110.39 64.93 110.5 64.91 110.61 64.9 110.72 64.88 110.83 64.86 110.93 64.84 111.04 64.82 111.15 64.8 111.26 64.78 111.36 64.76 111.47 64.74 111.58 64.71 111.69 64.69 111.8 64.66 111.9 64.63 112.01 64.61 112.12 64.58 112.23 64.55 112.33 64.52 112.44 64.49 112.55 64.45 112.66 64.42 112.77 64.39 112.87 64.35 112.98 64.32 113.09 64.28 113.2 64.24 113.3 64.2 113.41 64.17 113.52 64.13 113.63 64.09 113.74 64.04 113.84 64 113.95 63.96 114.06 63.92 114.17 63.87 114.27 63.83 114.38 63.78 114.49 63.73 114.6 63.69 114.71 63.64 114.81 63.59 114.92 63.54 115.03 63.49 115.14 63.44 115.24 63.38 115.35 63.33 115.46 63.28 115.57 63.22 115.68 63.17 115.78 63.11 115.89 63.05 116 63 116.11 62.94 116.21 62.88 116.32 62.82 116.43 62.76 116.54 62.7 116.65 62.64 116.75 62.58 116.86 62.51 116.97 62.45 117.08 62.39 117.18 62.32 117.29 62.26 117.4 62.19 117.51 62.12 117.62 62.06 117.72 61.99 117.83 61.92 117.94 61.85 118.05 61.78 118.15 61.71 118.26 61.64 118.37 61.57 118.48 61.49 118.59 61.42 118.69 61.35 118.8 61.27 118.91 61.2 119.02 61.12 119.12 61.05 119.23 60.97 119.34 60.89 119.45 60.82 119.56 60.74 119.66 60.66 119.77 60.58 119.88 60.5 119.99 60.42 120.09 60.34 120.2 60.26 120.31 60.17 120.42 60.09 120.53 60.01 120.63 59.93 120.74 59.85 120.85 59.77 120.96 59.69 121.06 59.6 121.17 59.52 121.28 59.44 121.39 59.35 121.5 59.27 121.6 59.18 121.71 59.09 121.82 59.01 121.93 58.92 122.03 58.83 122.14 58.74 122.25 58.65 122.36 58.56 122.47 58.47 122.57 58.37 122.68 58.28 122.79 58.19 122.9 58.09 123 58 123.11 57.9 123.22 57.81 123.33 57.71 123.44 57.61 123.54 57.52 123.65 57.42 123.76 57.32 123.87 57.22 123.97 57.12 124.08 57.02 124.19 56.92 124.3 56.81 124.41 56.71 124.51 56.61 124.62 56.5 124.73 56.4 124.84 56.29 124.94 56.19 125.05 56.08 125.16 55.98 125.27 55.87 125.38 55.76 125.48 55.65 125.59 55.54 125.7 55.43 125.81 55.32 125.91 55.21 126.02 55.1 126.13 54.99 126.24 54.88 126.35 54.76 126.45 54.65 126.56 54.54 126.67 54.42 126.78 54.31 126.88 54.19 126.99 54.07 127.1 53.96 127.21 53.84 127.32 53.72 127.42 53.6 127.53 53.48 127.64 53.36 127.75 53.24 127.85 53.12 127.96 53 128.07 52.88 128.18 52.76 128.29 52.64 128.39 52.51 128.5 52.39 128.61 52.26 128.72 52.14 128.82 52.01 128.93 51.89 129.04 51.76 129.15 51.64 129.26 51.51 129.36 51.38 129.47 51.25 129.58 51.12 129.69 50.99 129.79 50.86 129.9 50.73 130.01 50.6 130.12 50.47 130.23 50.34 130.33 50.21 130.44 50.08 130.55 49.94 130.66 49.81 130.76 49.68 130.87 49.54 130.98 49.41 131.09 49.27 131.2 49.14 131.3 49 131.41 48.86 131.52 48.73 131.63 48.59 131.73 48.45 131.84 48.31 131.95 48.17 132.06 48.03 132.17 47.89 132.27 47.75 132.38 47.61 132.49 47.47 132.6 47.33 132.7 47.19 132.81 47.05 132.92 46.9 133.03 46.76 133.14 46.62 133.24 46.47 133.35 46.33 133.46 46.18 133.57 46.04 133.67 45.89 133.78 45.75 133.89 45.6 134 45.45 134.11 45.31 134.21 45.16 134.32 45.01 134.43 44.86 134.54 44.71 134.64 44.56 134.75 44.41 134.86 44.26 134.97 44.11 135.08 43.96 135.18 43.81 135.29 43.66 135.4 43.51 135.51 43.36 135.61 43.21 135.72 43.05 135.83 42.9 135.94 42.75 136.05 42.59 136.15 42.44 136.26 42.28 136.37 42.13 136.48 41.97 136.58 41.82 136.69 41.66 136.8 41.5 136.91 41.34 137.02 41.19 137.12 41.03 137.23 40.87 137.34 40.71 137.45 40.55 137.55 40.39 137.66 40.23 137.77 40.07 137.88 39.91 137.99 39.75 138.09 39.59 138.2 39.42 138.31 39.26 138.42 39.1 138.53 38.93 138.63 38.77 138.74 38.6" />
            </g>
          </g>
        </g>
      </g>
      <g clip-path="url(#clippath3)">
      </g>
    </g>
  </g>
</g>
<defs>
<clipPath id="clippath1">
  <path d="M24.7,14.26 L 147.4 14.26 147.4 81.04 24.7 81.04" />
</clipPath
><clipPath id="clippath2">
  <path d="M24.7,14.26 L 147.4 14.26 147.4 81.04 24.7 81.04" />
</clipPath
><clipPath id="clippath3">
  <path d="M24.7,14.26 L 147.4 14.26 147.4 81.04 24.7 81.04" />
</clipPath
></defs>
</svg>
