<?xml version="1.0" encoding="UTF-8"?>
<svg xmlns="http://www.w3.org/2000/svg" xmlns:xlink="http://www.w3.org/1999/xlink" version="1.1" width="152.4mm" height="101.6mm" viewBox="0 0 152.4 101.6" style="stroke:black;fill:black" stroke-width="0.5">
<g stroke="none" stroke-width="0.3" font-family="Helvetic,Arial,sans" fill="#000000" font-size="3.88">
  <g class="plotroot xscalable yscalable">
    <g stroke="none" font-family="'PT Sans','Helvetica Neue','Helvetica',sans-serif" fill="#4C404B" font-size="3.18" class="guide ylabels">
      <text x="23.7" y="16.15" text-anchor="end" style="dominant-baseline:central">1.0</text>
      <text x="23.7" y="53.95" text-anchor="end" style="dominant-baseline:central">0.4</text>
      <text x="23.7" y="28.75" text-anchor="end" style="dominant-baseline:central">0.8</text>
      <text x="23.7" y="66.55" text-anchor="end" style="dominant-baseline:central">0.2</text>
      <text x="23.7" y="41.35" text-anchor="end" style="dominant-baseline:central">0.6</text>
      <text x="23.7" y="79.15" text-anchor="end" style="dominant-baseline:central">0.0</text>
    </g>
    <g stroke="none" font-family="'PT Sans','Helvetica Neue','Helvetica',sans-serif" fill="#362A35" font-size="3.88">
      <text x="8.63" y="47.65" text-anchor="middle" style="dominant-baseline:central" transform="rotate(-90, 8.63, 47.65)">This is the y-axis</text>
    </g>
    <g stroke="none" font-family="'PT Sans','Helvetica Neue','Helvetica',sans-serif" fill="#4C404B" font-size="3.18" class="guide xlabels">
      <text x="143.93" y="86.34" text-anchor="middle">1.0</text>
      <text x="74.47" y="86.34" text-anchor="middle">0.4</text>
      <text x="120.78" y="86.34" text-anchor="middle">0.8</text>
      <text x="51.32" y="86.34" text-anchor="middle">0.2</text>
      <text x="97.62" y="86.34" text-anchor="middle">0.6</text>
      <text x="28.17" y="86.34" text-anchor="middle">0.0</text>
    </g>
    <g stroke="none" font-family="'PT Sans','Helvetica Neue','Helvetica',sans-serif" fill="#362A35" font-size="3.88">
      <text x="86.05" y="94.6" text-anchor="middle">This is the x-axis</text>
    </g>
    <g stroke="none" font-family="'PT Sans','Helvetica Neue','Helvetica',sans-serif" fill="#362A35" font-size="3.88">
      <text x="86.05" y="12.26" text-anchor="middle">This is the overall plot title</text>
    </g>
    <g>
      <g clip-path="url(#clippath1)">
        <g stroke="#F1F1F5" fill="#FAFAFA" class="guide background">
          <path d="M24.7,14.26 L 147.4 14.26 147.4 81.04 24.7 81.04 z" />
        </g>
        <g stroke="#F0F0F3" stroke-width="0.2" class="guide ygridlines xfixed">
          <path d="M24.7,104.35 L 147.4 104.35" />
          <path d="M24.7,53.95 L 147.4 53.95" />
          <path d="M24.7,129.55 L 147.4 129.55" />
          <path d="M24.7,116.95 L 147.4 116.95" />
          <path d="M24.7,66.55 L 147.4 66.55" />
          <path d="M24.7,-9.05 L 147.4 -9.05" />
          <path d="M24.7,-34.25 L 147.4 -34.25" />
          <path d="M24.7,3.55 L 147.4 3.55" />
          <path d="M24.7,142.15 L 147.4 142.15" />
          <path d="M24.7,91.75 L 147.4 91.75" />
          <path d="M24.7,79.15 L 147.4 79.15" />
          <path d="M24.7,41.35 L 147.4 41.35" />
          <path d="M24.7,-59.45 L 147.4 -59.45" />
          <path d="M24.7,154.75 L 147.4 154.75" />
          <path d="M24.7,28.75 L 147.4 28.75" />
          <path d="M24.7,-46.85 L 147.4 -46.85" />
          <path d="M24.7,16.15 L 147.4 16.15" />
          <path d="M24.7,-21.65 L 147.4 -21.65" />
        </g>
        <g stroke="#F0F0F3" stroke-width="0.2" class="guide xgridlines yfixed">
          <path d="M-18.13,14.26 L -18.13 81.04" />
          <path d="M74.47,14.26 L 74.47 81.04" />
          <path d="M-64.43,14.26 L -64.43 81.04" />
          <path d="M-41.28,14.26 L -41.28 81.04" />
          <path d="M51.32,14.26 L 51.32 81.04" />
          <path d="M190.23,14.26 L 190.23 81.04" />
          <path d="M236.53,14.26 L 236.53 81.04" />
          <path d="M167.08,14.26 L 167.08 81.04" />
          <path d="M-87.59,14.26 L -87.59 81.04" />
          <path d="M5.02,14.26 L 5.02 81.04" />
          <path d="M28.17,14.26 L 28.17 81.04" />
          <path d="M97.62,14.26 L 97.62 81.04" />
          <path d="M282.84,14.26 L 282.84 81.04" />
          <path d="M-110.74,14.26 L -110.74 81.04" />
          <path d="M120.78,14.26 L 120.78 81.04" />
          <path d="M259.68,14.26 L 259.68 81.04" />
          <path d="M143.93,14.26 L 143.93 81.04" />
          <path d="M213.38,14.26 L 213.38 81.04" />
        </g>
      </g>
      <g clip-path="url(#clippath2)">
        <g class="plotpanel">
          <g stroke-width="0.3">
            <g stroke="#0096DD" stroke-width="0.3" fill="#00BFFF" class="geometry color_LCHab(70.0,60.0,240.0)_">
              <circle cx="42.08" cy="42.73" r="0.6" />
            </g>
            <g stroke="#0096DD" stroke-width="0.3" fill="#00BFFF" class="geometry color_LCHab(70.0,60.0,240.0)_">
              <circle cx="85.58" cy="26.74" r="0.6" />
            </g>
            <g stroke="#0096DD" stroke-width="0.3" fill="#00BFFF" class="geometry color_LCHab(70.0,60.0,240.0)_">
              <circle cx="89.06" cy="65.83" r="0.6" />
            </g>
            <g stroke="#0096DD" stroke-width="0.3" fill="#00BFFF" class="geometry color_LCHab(70.0,60.0,240.0)_">
              <circle cx="30.07" cy="63.11" r="0.6" />
            </g>
            <g stroke="#0096DD" stroke-width="0.3" fill="#00BFFF" class="geometry color_LCHab(70.0,60.0,240.0)_">
              <circle cx="95.82" cy="34.07" r="0.6" />
            </g>
            <g stroke="#0096DD" stroke-width="0.3" fill="#00BFFF" class="geometry color_LCHab(70.0,60.0,240.0)_">
              <circle cx="49.27" cy="68.17" r="0.6" />
            </g>
            <g stroke="#0096DD" stroke-width="0.3" fill="#00BFFF" class="geometry color_LCHab(70.0,60.0,240.0)_">
              <circle cx="121.2" cy="44.35" r="0.6" />
            </g>
            <g stroke="#0096DD" stroke-width="0.3" fill="#00BFFF" class="geometry color_LCHab(70.0,60.0,240.0)_">
              <circle cx="29.66" cy="21.53" r="0.6" />
            </g>
            <g stroke="#0096DD" stroke-width="0.3" fill="#00BFFF" class="geometry color_LCHab(70.0,60.0,240.0)_">
              <circle cx="86.65" cy="47.72" r="0.6" />
            </g>
            <g stroke="#0096DD" stroke-width="0.3" fill="#00BFFF" class="geometry color_LCHab(70.0,60.0,240.0)_">
              <circle cx="104.88" cy="78.32" r="0.6" />
            </g>
          </g>
          <g stroke-width="0.3" fill="none">
            <g stroke="#00BFFF" class="geometry">
              <path d="M29.66,40.34 L 29.78 40.47 29.9 40.6 30.02 40.73 30.14 40.86 30.27 40.99 30.39 41.12 30.51 41.25 30.63 41.38 30.75 41.52 30.88 41.65 31 41.79 31.12 41.92 31.24 42.06 31.36 42.19 31.49 42.33 31.61 42.46 31.73 42.6 31.85 42.74 31.98 42.87 32.1 43.01 32.22 43.15 32.34 43.29 32.46 43.43 32.59 43.57 32.71 43.71 32.83 43.85 32.95 43.99 33.07 44.13 33.2 44.27 33.32 44.41 33.44 44.55 33.56 44.69 33.68 44.83 33.81 44.97 33.93 45.11 34.05 45.26 34.17 45.4 34.29 45.54 34.42 45.68 34.54 45.82 34.66 45.97 34.78 46.11 34.9 46.25 35.03 46.39 35.15 46.53 35.27 46.68 35.39 46.82 35.51 46.96 35.64 47.1 35.76 47.25 35.88 47.39 36 47.53 36.13 47.67 36.25 47.82 36.37 47.96 36.49 48.1 36.61 48.24 36.74 48.38 36.86 48.53 36.98 48.67 37.1 48.81 37.22 48.95 37.35 49.09 37.47 49.23 37.59 49.37 37.71 49.51 37.83 49.65 37.96 49.79 38.08 49.93 38.2 50.07 38.32 50.21 38.44 50.35 38.57 50.49 38.69 50.62 38.81 50.76 38.93 50.9 39.05 51.03 39.18 51.17 39.3 51.31 39.42 51.44 39.54 51.58 39.67 51.71 39.79 51.85 39.91 51.98 40.03 52.11 40.15 52.25 40.28 52.38 40.4 52.51 40.52 52.64 40.64 52.77 40.76 52.9 40.89 53.03 41.01 53.16 41.13 53.29 41.25 53.42 41.37 53.55 41.5 53.67 41.62 53.8 41.74 53.93 41.86 54.05 41.98 54.18 42.11 54.31 42.23 54.47 42.35 54.64 42.47 54.8 42.59 54.96 42.72 55.12 42.84 55.27 42.96 55.43 43.08 55.58 43.21 55.72 43.33 55.87 43.45 56.01 43.57 56.15 43.69 56.29 43.82 56.42 43.94 56.56 44.06 56.69 44.18 56.82 44.3 56.94 44.43 57.07 44.55 57.19 44.67 57.31 44.79 57.42 44.91 57.54 45.04 57.65 45.16 57.76 45.28 57.87 45.4 57.97 45.52 58.07 45.65 58.18 45.77 58.27 45.89 58.37 46.01 58.46 46.13 58.56 46.26 58.65 46.38 58.73 46.5 58.82 46.62 58.9 46.74 58.98 46.87 59.06 46.99 59.14 47.11 59.22 47.23 59.29 47.36 59.36 47.48 59.43 47.6 59.49 47.72 59.56 47.84 59.62 47.97 59.68 48.09 59.74 48.21 59.8 48.33 59.85 48.45 59.9 48.58 59.95 48.7 60 48.82 60.05 48.94 60.09 49.06 60.14 49.19 60.18 49.31 60.22 49.43 60.25 49.55 60.29 49.67 60.32 49.8 60.35 49.92 60.38 50.04 60.41 50.16 60.43 50.28 60.46 50.41 60.48 50.53 60.5 50.65 60.52 50.77 60.53 50.9 60.55 51.02 60.56 51.14 60.57 51.26 60.58 51.38 60.59 51.51 60.6 51.63 60.6 51.75 60.6 51.87 60.61 51.99 60.6 52.12 60.6 52.24 60.6 52.36 60.59 52.48 60.58 52.6 60.58 52.73 60.57 52.85 60.55 52.97 60.54 53.09 60.52 53.21 60.51 53.34 60.49 53.46 60.47 53.58 60.45 53.7 60.42 53.82 60.4 53.95 60.37 54.07 60.34 54.19 60.31 54.31 60.28 54.43 60.25 54.56 60.22 54.68 60.18 54.8 60.15 54.92 60.11 55.05 60.07 55.17 60.03 55.29 59.98 55.41 59.94 55.53 59.9 55.66 59.85 55.78 59.8 55.9 59.75 56.02 59.7 56.14 59.65 56.27 59.6 56.39 59.54 56.51 59.49 56.63 59.43 56.75 59.37 56.88 59.31 57 59.25 57.12 59.19 57.24 59.12 57.36 59.06 57.49 58.99 57.61 58.93 57.73 58.86 57.85 58.79 57.97 58.72 58.1 58.65 58.22 58.57 58.34 58.5 58.46 58.42 58.59 58.35 58.71 58.27 58.83 58.19 58.95 58.11 59.07 58.03 59.2 57.95 59.32 57.87 59.44 57.78 59.56 57.7 59.68 57.61 59.81 57.52 59.93 57.43 60.05 57.35 60.17 57.26 60.29 57.16 60.42 57.07 60.54 56.98 60.66 56.89 60.78 56.79 60.9 56.7 61.03 56.6 61.15 56.5 61.27 56.4 61.39 56.3 61.51 56.2 61.64 56.1 61.76 56 61.88 55.9 62 55.79 62.12 55.69 62.25 55.58 62.37 55.48 62.49 55.37 62.61 55.26 62.74 55.15 62.86 55.04 62.98 54.94 63.1 54.82 63.22 54.71 63.35 54.6 63.47 54.49 63.59 54.37 63.71 54.26 63.83 54.15 63.96 54.03 64.08 53.91 64.2 53.8 64.32 53.68 64.44 53.56 64.57 53.44 64.69 53.32 64.81 53.2 64.93 53.08 65.05 52.96 65.18 52.84 65.3 52.72 65.42 52.6 65.54 52.47 65.66 52.35 65.79 52.22 65.91 52.1 66.03 51.97 66.15 51.85 66.28 51.72 66.4 51.6 66.52 51.47 66.64 51.34 66.76 51.21 66.89 51.08 67.01 50.96 67.13 50.83 67.25 50.7 67.37 50.57 67.5 50.43 67.62 50.29 67.74 50.15 67.86 50.01 67.98 49.87 68.11 49.73 68.23 49.59 68.35 49.45 68.47 49.31 68.59 49.18 68.72 49.04 68.84 48.91 68.96 48.77 69.08 48.64 69.2 48.5 69.33 48.37 69.45 48.24 69.57 48.1 69.69 47.97 69.81 47.84 69.94 47.71 70.06 47.58 70.18 47.46 70.3 47.33 70.43 47.2 70.55 47.08 70.67 46.95 70.79 46.83 70.91 46.7 71.04 46.58 71.16 46.46 71.28 46.34 71.4 46.22 71.52 46.1 71.65 45.98 71.77 45.86 71.89 45.75 72.01 45.63 72.13 45.52 72.26 45.4 72.38 45.29 72.5 45.18 72.62 45.07 72.74 44.96 72.87 44.85 72.99 44.74 73.11 44.64 73.23 44.53 73.35 44.43 73.48 44.32 73.6 44.22 73.72 44.12 73.84 44.02 73.97 43.92 74.09 43.83 74.21 43.73 74.33 43.64 74.45 43.54 74.58 43.45 74.7 43.36 74.82 43.27 74.94 43.18 75.06 43.09 75.19 43.01 75.31 42.92 75.43 42.84 75.55 42.75 75.67 42.67 75.8 42.59 75.92 42.52 76.04 42.44 76.16 42.36 76.28 42.29 76.41 42.22 76.53 42.15 76.65 42.08 76.77 42.01 76.89 41.94 77.02 41.88 77.14 41.81 77.26 41.75 77.38 41.69 77.51 41.63 77.63 41.57 77.75 41.52 77.87 41.46 77.99 41.41 78.12 41.36 78.24 41.31 78.36 41.26 78.48 41.21 78.6 41.17 78.73 41.13 78.85 41.08 78.97 41.04 79.09 41.01 79.21 40.97 79.34 40.94 79.46 40.9 79.58 40.87 79.7 40.84 79.82 40.81 79.95 40.79 80.07 40.77 80.19 40.74 80.31 40.72 80.43 40.7 80.56 40.69 80.68 40.67 80.8 40.66 80.92 40.65 81.04 40.64 81.17 40.63 81.29 40.63 81.41 40.63 81.53 40.63 81.66 40.63 81.78 40.63 81.9 40.63 82.02 40.64 82.14 40.65 82.27 40.66 82.39 40.67 82.51 40.69 82.63 40.71 82.75 40.73 82.88 40.75 83 40.77 83.12 40.8 83.24 40.83 83.36 40.86 83.49 40.89 83.61 40.92 83.73 40.96 83.85 41 83.97 41.04 84.1 41.08 84.22 41.13 84.34 41.18 84.46 41.23 84.58 41.28 84.71 41.33 84.83 41.39 84.95 41.45 85.07 41.51 85.2 41.58 85.32 41.64 85.44 41.71 85.56 41.78 85.68 41.86 85.81 41.93 85.93 42.01 86.05 42.09 86.17 42.19 86.29 42.29 86.42 42.41 86.54 42.53 86.66 42.66 86.78 42.8 86.9 42.94 87.03 43.09 87.15 43.25 87.27 43.41 87.39 43.58 87.51 43.75 87.64 43.93 87.76 44.11 87.88 44.3 88 44.48 88.12 44.66 88.25 44.85 88.37 45.05 88.49 45.24 88.61 45.45 88.73 45.65 88.86 45.86 88.98 46.08 89.1 46.29 89.22 46.47 89.35 46.65 89.47 46.84 89.59 47.03 89.71 47.22 89.83 47.41 89.96 47.61 90.08 47.8 90.2 47.99 90.32 48.19 90.44 48.39 90.57 48.59 90.69 48.79 90.81 48.99 90.93 49.19 91.05 49.39 91.18 49.6 91.3 49.8 91.42 50.01 91.54 50.21 91.66 50.42 91.79 50.63 91.91 50.83 92.03 51.04 92.15 51.25 92.27 51.46 92.4 51.67 92.52 51.87 92.64 52.08 92.76 52.29 92.89 52.5 93.01 52.71 93.13 52.92 93.25 53.13 93.37 53.33 93.5 53.54 93.62 53.75 93.74 53.95 93.86 54.16 93.98 54.37 94.11 54.57 94.23 54.78 94.35 54.98 94.47 55.18 94.59 55.39 94.72 55.59 94.84 55.79 94.96 55.99 95.08 56.18 95.2 56.38 95.33 56.58 95.45 56.77 95.57 56.96 95.69 57.16 95.81 57.35 95.94 57.5 96.06 57.64 96.18 57.79 96.3 57.93 96.42 58.07 96.55 58.21 96.67 58.35 96.79 58.49 96.91 58.62 97.04 58.76 97.16 58.89 97.28 59.02 97.4 59.15 97.52 59.28 97.65 59.4 97.77 59.53 97.89 59.65 98.01 59.77 98.13 59.89 98.26 60.01 98.38 60.13 98.5 60.24 98.62 60.36 98.74 60.47 98.87 60.58 98.99 60.69 99.11 60.8 99.23 60.9 99.35 61 99.48 61.11 99.6 61.21 99.72 61.31 99.84 61.4 99.96 61.5 100.09 61.59 100.21 61.69 100.33 61.78 100.45 61.87 100.58 61.95 100.7 62.04 100.82 62.12 100.94 62.2 101.06 62.28 101.19 62.36 101.31 62.44 101.43 62.51 101.55 62.59 101.67 62.66 101.8 62.73 101.92 62.79 102.04 62.86 102.16 62.92 102.28 62.98 102.41 63.04 102.53 63.1 102.65 63.16 102.77 63.21 102.89 63.27 103.02 63.32 103.14 63.37 103.26 63.41 103.38 63.46 103.5 63.5 103.63 63.54 103.75 63.58 103.87 63.62 103.99 63.65 104.11 63.69 104.24 63.72 104.36 63.75 104.48 63.77 104.6 63.8 104.73 63.82 104.85 63.84 104.97 63.86 105.09 63.88 105.21 63.9 105.34 63.91 105.46 63.92 105.58 63.93 105.7 63.94 105.82 63.94 105.95 63.94 106.07 63.94 106.19 63.94 106.31 63.94 106.43 63.93 106.56 63.93 106.68 63.92 106.8 63.9 106.92 63.89 107.04 63.87 107.17 63.86 107.29 63.83 107.41 63.81 107.53 63.79 107.65 63.76 107.78 63.73 107.9 63.7 108.02 63.66 108.14 63.63 108.27 63.59 108.39 63.55 108.51 63.51 108.63 63.46 108.75 63.41 108.88 63.36 109 63.31 109.12 63.26 109.24 63.2 109.36 63.14 109.49 63.08 109.61 63.02 109.73 62.95 109.85 62.88 109.97 62.81 110.1 62.74 110.22 62.66 110.34 62.58 110.46 62.5 110.58 62.42 110.71 62.34 110.83 62.25 110.95 62.16 111.07 62.07 111.19 61.97 111.32 61.88 111.44 61.78 111.56 61.67 111.68 61.57 111.81 61.46 111.93 61.35 112.05 61.24 112.17 61.13 112.29 61.01 112.42 60.89 112.54 60.77 112.66 60.64 112.78 60.52 112.9 60.39 113.03 60.25 113.15 60.12 113.27 59.99 113.39 59.86 113.51 59.72 113.64 59.59 113.76 59.45 113.88 59.31 114 59.16 114.12 59.01 114.25 58.87 114.37 58.71 114.49 58.56 114.61 58.41 114.73 58.25 114.86 58.09 114.98 57.92 115.1 57.76 115.22 57.59 115.34 57.42 115.47 57.25 115.59 57.08 115.71 56.9 115.83 56.72 115.96 56.54 116.08 56.36 116.2 56.17 116.32 55.98 116.44 55.79 116.57 55.6 116.69 55.4 116.81 55.21 116.93 55.01 117.05 54.8 117.18 54.6 117.3 54.39 117.42 54.18 117.54 53.97 117.66 53.76 117.79 53.54 117.91 53.32 118.03 53.1 118.15 52.88 118.27 52.65 118.4 52.42 118.52 52.19 118.64 51.96 118.76 51.72 118.88 51.48 119.01 51.24 119.13 51 119.25 50.75 119.37 50.51 119.5 50.26 119.62 50 119.74 49.75 119.86 49.49 119.98 49.23 120.11 48.97 120.23 48.7 120.35 48.43 120.47 48.16 120.59 47.89 120.72 47.61 120.84 47.34 120.96 47.06 121.08 46.77" />
            </g>
          </g>
        </g>
      </g>
      <g clip-path="url(#clippath3)">
      </g>
    </g>
  </g>
</g>
<defs>
<clipPath id="clippath1">
  <path d="M24.7,14.26 L 147.4 14.26 147.4 81.04 24.7 81.04" />
</clipPath
><clipPath id="clippath2">
  <path d="M24.7,14.26 L 147.4 14.26 147.4 81.04 24.7 81.04" />
</clipPath
><clipPath id="clippath3">
  <path d="M24.7,14.26 L 147.4 14.26 147.4 81.04 24.7 81.04" />
</clipPath
></defs>
</svg>
